<?xml version="1.0" encoding="UTF-8" standalone="no"?>
<svg
   xmlns:dc="http://purl.org/dc/elements/1.1/"
   xmlns:cc="http://creativecommons.org/ns#"
   xmlns:rdf="http://www.w3.org/1999/02/22-rdf-syntax-ns#"
   xmlns:svg="http://www.w3.org/2000/svg"
   xmlns="http://www.w3.org/2000/svg"
   xmlns:sodipodi="http://sodipodi.sourceforge.net/DTD/sodipodi-0.dtd"
   xmlns:inkscape="http://www.inkscape.org/namespaces/inkscape"
   width="1.77778in"
   height="1.77778in"
   viewBox="0 0 128 128"
   id="svg3032"
   version="1.1"
   inkscape:version="0.48.5 r10040"
   sodipodi:docname="fail.svg">
  <metadata
     id="metadata3039">
    <rdf:RDF>
      <cc:Work
         rdf:about="">
        <dc:format>image/svg+xml</dc:format>
        <dc:type
           rdf:resource="http://purl.org/dc/dcmitype/StillImage" />
      </cc:Work>
    </rdf:RDF>
  </metadata>
  <defs
     id="defs3037" />
  <sodipodi:namedview
     pagecolor="#ffffff"
     bordercolor="#666666"
     borderopacity="1"
     objecttolerance="10"
     gridtolerance="10"
     guidetolerance="10"
     inkscape:pageopacity="0"
     inkscape:pageshadow="2"
     inkscape:window-width="1280"
     inkscape:window-height="971"
     id="namedview3035"
     showgrid="false"
     inkscape:zoom="0.1767767"
     inkscape:cx="-1656.1552"
     inkscape:cy="1324.3118"
     inkscape:window-x="1366"
     inkscape:window-y="25"
     inkscape:window-maximized="1"
     inkscape:current-layer="svg3032" />
  <path
     id="fail"
     d="M 39.25,92.99 63.999999,68.317344 88.75,92.99 92.99,88.75 68.246953,64.07039 93.7,38.54 89.46,34.3 64,59.823438 38.54,34.3 34.3,38.54 59.753047,64.070391 35.01,88.75 z M 78.06,15.9 c 35.07,9.89 47.41,53.59 23.99,80.91 -4.85,5.66 -10.25,9.52 -16.96,12.67 C 77.8,112.91 70.43,114.09 62.44,114 23.5,113.54 1.64,69.87 21.39,37.44 29.73,23.74 42.34,16.86 57.75,14.33 c 6.71,-0.82 13.8,-0.27 20.31,1.57 z"
     inkscape:connector-curvature="0"
     style="fill:#ff6347;stroke:none;stroke-width:1;stroke-opacity:1;fill-opacity:1"
     sodipodi:nodetypes="cccccccccccccccccccc" />
</svg>
